<?xml version="1.0" encoding="utf-8"?>
<!-- Generator: Adobe Illustrator 27.1.0, SVG Export Plug-In . SVG Version: 6.00 Build 0)  -->
<svg version="1.1" id="Ebene_1" xmlns="http://www.w3.org/2000/svg" xmlns:xlink="http://www.w3.org/1999/xlink" x="0px" y="0px"
	 viewBox="0 0 830 380.9" style="enable-background:new 0 0 830 380.9;" xml:space="preserve">
<style type="text/css">
	.st0{fill:#24292F;}
	.st1{opacity:0;fill:#24292F;}
</style>
<g>
	<path class="st0" d="M299.2,204.5v-3h16.5v-25.3h20v3h-16.5v22.3h16.5v3H299.2z"/>
	<path class="st0" d="M352.9,190.3c0-8.8,6.4-14.8,13.5-14.8c7.2,0,13.2,4.6,13.2,13.9v1.7h-23.3c0.2,6.2,4.9,11.1,11.3,11.1
		c3.5,0,6.6-1.3,8.9-3.4l1.3,2.9c-2.5,2-6,3.5-10.4,3.5C359.5,205.2,352.9,199.6,352.9,190.3z M356.3,187.9h20
		c-0.3-6.1-4.8-9.4-9.9-9.4C361.6,178.5,356.7,182.1,356.3,187.9z"/>
	<path class="st0" d="M400,190.3c0-8.9,6.8-14.9,14.5-14.9c5,0,9.7,2.6,12.3,6.8v-6.1h3.2v26.6c0,9.3-6,14.9-15.5,14.9
		c-4.2,0-8-0.9-10.6-2.6V211c2.8,2.5,6.7,3.6,10.6,3.6c6.8,0,12-3.7,12-11.8v-4.1c-2.7,4.1-7.2,6.4-12.1,6.4
		C406.8,205.2,400,199.3,400,190.3z M426.5,190.8v-1c-0.3-6.6-5.3-11.3-11.5-11.3c-6.4,0-11.5,4.9-11.5,11.7S408.6,202,415,202
		C421.3,202,426.3,197.3,426.5,190.8z"/>
	<path class="st0" d="M476,204.5l-1.2-6.2c-2.6,4.4-7.3,6.9-12.4,6.9c-7.7,0-14.5-5.9-14.5-14.9s6.8-14.9,14.5-14.9
		c5.1,0,9.7,2.6,12.4,6.9v-6.2h3.2v20.9l1.4,7.4H476z M474.6,190.8v-0.5c0-6.8-5.1-11.8-11.6-11.8c-6.5,0-11.6,5-11.6,11.8
		s5.1,11.8,11.6,11.8C469.3,202.2,474.3,197.5,474.6,190.8z"/>
	<path class="st0" d="M494.2,204.5v-3.1h16.5v-34.9h-16.5v-3.1h20v38.1h16.5v3.1H494.2z"/>
</g>
<path class="st1" d="M830.5,381.4h-831V-0.5h831V381.4z M0.5,380.4h829V0.5H0.5V380.4z"/>
</svg>
