<?xml version="1.0" encoding="UTF-8"?>
<svg id="Ebene_1" data-name="Ebene 1" xmlns="http://www.w3.org/2000/svg" width="293.16mm" height="134.74mm" viewBox="0 0 831 381.94">
  <defs>
    <style>
      .cls-1 {
        opacity: .1;
      }

      .cls-1, .cls-2 {
        fill: #c9d1d9;
      }
    </style>
  </defs>
  <g>
    <path class="cls-2" d="m299.73,204.98v-3.02h16.54v-25.3h20.02v3.02h-16.54v22.28h16.54v3.02h-36.56Z"/>
    <path class="cls-2" d="m353.41,190.77c0-8.82,6.38-14.8,13.52-14.8s13.17,4.64,13.17,13.87v1.68h-23.33c.17,6.15,4.93,11.08,11.32,11.08,3.54,0,6.56-1.28,8.94-3.37l1.33,2.9c-2.5,2.03-5.98,3.54-10.45,3.54-7.89,0-14.51-5.57-14.51-14.91Zm3.37-2.32h20.02c-.29-6.09-4.76-9.4-9.86-9.4s-9.69,3.54-10.16,9.4Z"/>
    <path class="cls-2" d="m400.47,190.82c0-8.94,6.85-14.86,14.51-14.86,5.05,0,9.69,2.55,12.3,6.79v-6.09h3.25v26.58c0,9.29-6.03,14.91-15.49,14.91-4.18,0-8.01-.93-10.62-2.55v-4.06c2.84,2.5,6.67,3.6,10.62,3.6,6.79,0,12.01-3.71,12.01-11.84v-4.06c-2.73,4.12-7.2,6.44-12.07,6.44-7.66,0-14.51-5.92-14.51-14.86Zm26.58.52v-.99c-.29-6.56-5.28-11.26-11.55-11.26s-11.55,4.93-11.55,11.72,5.11,11.72,11.55,11.72,11.26-4.7,11.55-11.2Z"/>
    <path class="cls-2" d="m476.55,204.98l-1.22-6.21c-2.61,4.41-7.25,6.91-12.36,6.91-7.66,0-14.51-5.92-14.51-14.86s6.85-14.86,14.51-14.86c5.11,0,9.75,2.55,12.36,6.91v-6.21h3.25v20.95l1.39,7.37h-3.42Zm-1.45-13.64v-.52c0-6.79-5.11-11.84-11.61-11.84s-11.61,5.05-11.61,11.84,5.11,11.84,11.61,11.84,11.32-4.7,11.61-11.32Z"/>
    <path class="cls-2" d="m494.71,204.98v-3.13h16.54v-34.93h-16.54v-3.13h20.02v38.07h16.54v3.13h-36.56Z"/>
  </g>
  <path class="cls-1" d="m831,381.94H0V0h831v381.94ZM1,380.94h829V1H1v379.94Z"/>
</svg>