<?xml version="1.0" encoding="UTF-8"?>
<svg xmlns="http://www.w3.org/2000/svg" width="150mm" height="102.81mm" viewBox="0 0 425.2 291.44">
  <defs>
    <style>
      .cls-1 {
        fill: #161b22;
      }

      .cls-2 {
        fill: #fff;
        opacity: 0;
      }

      .cls-3 {
        stroke-linecap: round;
        stroke-linejoin: round;
      }

      .cls-3, .cls-4 {
        fill: none;
        stroke: #58a6ff;
        stroke-width: .5px;
      }

      .cls-4 {
        stroke-miterlimit: 10;
      }
    </style>
  </defs>
  <g id="Kontur">
    <rect class="cls-2" y=".25" width="425.2" height="291.19"/>
  </g>
  <g id="Ebene_25" data-name="Ebene 25">
    <path class="cls-1" d="m293.4,27.49c-6.19-4.84-14.28-5.56-20.99-2.59h-5.26c.04-.52.08-1.03.08-1.56,0-11.74-9.52-21.26-21.26-21.26s-21.26,9.52-21.26,21.26c0,.53.04,1.04.08,1.56h-16.22L177.71.79c-1.11-.87-2.71-.67-3.58.44l-18.5,23.67h-27.87c-1.1,0-1.98.89-1.98,1.98v4.91l-22.18,28.39c-.87,1.11-.67,2.71.44,3.58l21.74,16.99v29.34l-13.87,17.75c-.87,1.11-.67,2.71.44,3.58l13.43,10.49v30.81l-13.16,16.84c-.87,1.11-.67,2.71.44,3.58l12.72,9.94v60.83c0,1.1.89,1.98,1.98,1.98h21.96c.24,11.54,9.65,20.82,21.24,20.82s21-9.28,21.24-20.82h12.93l31.19,24.37c2.38,1.86,5.82,1.44,7.68-.94l18.31-23.43h27.88v-12.34h-4.54s0-4.25,0-4.25c0-.01,0-.02,0-.03v-16.94s0-.02,0-.03c0,0,0-1.95,0-3.21v-.59h0c0-.28,0-.46,0-.46h4.54v-89.85h-4.53s0-13.5,0-22.79v-1.3c0-4.21,0-7.28,0-7.28,0-.01,0-.03,0-.04v-15.76l1.3-1.66c.87-1.11.67-2.71-.44-3.58l-.86-.67c0-5.83,0-15.7,0-21.51,4.32-1.06,8.33-3.51,11.28-7.29,6.99-8.94,5.4-21.86-3.54-28.85Zm-47.43-18.32c7.83,0,14.17,6.35,14.17,14.17s-6.35,14.17-14.17,14.17-14.17-6.35-14.17-14.17,6.35-14.17,14.17-14.17Zm-75,270.47c-7.83,0-14.17-6.35-14.17-14.17s6.35-14.17,14.17-14.17,14.17,6.35,14.17,14.17c0,7.83-6.35,14.17-14.17,14.17ZM327.74,38.66v225.27c0,1.09-.88,1.97-1.97,1.97h-15.88v-12.33h-4.54v-1.06s0,0,0,0v-24c0-.28,0-.46,0-.46h4.54v-89.85h-4.53s0-18.21,0-26.87v-21.5s0,0,0,0c0,0,0-3.01,0-7.15,0-.38,0-.77,0-1.17,0-9.14,0-22.54,0-22.54h4.53v-22.3h15.87c1.1,0,1.98.89,1.98,1.98Z"/>
  </g>
  <g id="Keys">
    <path class="cls-3" d="m286.52,85.8l-32.84-25.66c-1.11-.87-2.71-.67-3.58.44l-25.66,32.84c-.87,1.11-.67,2.71.44,3.58l32.84,25.66c1.11.87,2.71.67,3.58-.44l25.66-32.84c.87-1.11.67-2.71-.44-3.58Z"/>
    <path class="cls-3" d="m248.53,56.13l-32.84-25.66c-1.11-.87-2.71-.67-3.58.44l-25.66,32.84c-.87,1.11-.67,2.71.44,3.58l32.84,25.66c1.11.87,2.71.67,3.58-.44l25.66-32.84c.87-1.11.67-2.71-.44-3.58Z"/>
    <path class="cls-3" d="m216.43,148.33l25.66-32.84c.87-1.11.67-2.71-.44-3.58l-32.84-25.66c-1.11-.87-2.71-.67-3.58.44l-25.66,32.84c-.87,1.11-.67,2.71.44,3.58l32.84,25.66c1.11.87,2.71.67,3.58-.44Z"/>
    <path class="cls-3" d="m167.24,57.02l-25.66,32.84c-.87,1.11-.67,2.71.44,3.58l32.84,25.66c1.11.87,2.71.67,3.58-.44l25.66-32.84c.87-1.11.67-2.71-.44-3.58l-32.84-25.66c-1.11-.87-2.71-.67-3.58.44Z"/>
    <path class="cls-3" d="m250.39,183.15l-25.66,32.84c-.87,1.11-2.47,1.31-3.58.44l-32.84-25.66c-1.11-.87-1.31-2.47-.44-3.58l25.66-32.84c.87-1.11,2.47-1.31,3.58-.44l32.84,25.66c1.11.87,1.31,2.47.44,3.58Z"/>
    <path class="cls-3" d="m213.12,215.2l-25.66,32.84c-.87,1.11-2.47,1.31-3.58.44l-32.84-25.66c-1.11-.87-1.31-2.47-.44-3.58l25.66-32.84c.87-1.11,2.47-1.31,3.58-.44l32.84,25.66c1.11.87,1.31,2.47.44,3.58Z"/>
    <path class="cls-3" d="m210.55,26.45L177.71.79c-1.11-.87-2.71-.67-3.58.44l-25.66,32.84c-.87,1.11-.67,2.71.44,3.58l32.84,25.66c1.11.87,2.71.67,3.58-.44l25.66-32.84c.87-1.11.67-2.71-.44-3.58Z"/>
    <path class="cls-3" d="m166.11,56.14l-25.66,32.84c-.87,1.11-2.47,1.31-3.58.44l-32.84-25.66c-1.11-.87-1.31-2.47-.44-3.58l25.66-32.84c.87-1.11,2.47-1.31,3.58-.44l32.84,25.66c1.11.87,1.31,2.47.44,3.58Z"/>
    <path class="cls-3" d="m149.89,157.52l25.66-32.84c.87-1.11,2.47-1.31,3.58-.44l32.84,25.66c1.11.87,1.31,2.47.44,3.58l-25.66,32.84c-.87,1.11-2.47,1.31-3.58.44l-32.84-25.66c-1.11-.87-1.31-2.47-.44-3.58Z"/>
    <path class="cls-3" d="m137.57,95l-25.66,32.84c-.87,1.11-.67,2.71.44,3.58l32.84,25.66c1.11.87,2.71.67,3.58-.44l25.66-32.84c.87-1.11.67-2.71-.44-3.58l-32.84-25.66c-1.11-.87-2.71-.67-3.58.44Z"/>
    <path class="cls-3" d="m175.13,185.53l-25.66,32.84c-.87,1.11-2.47,1.31-3.58.44l-32.84-25.66c-1.11-.87-1.31-2.47-.44-3.58l25.66-32.84c.87-1.11,2.47-1.31,3.58-.44l32.84,25.66c1.11.87,1.31,2.47.44,3.58Z"/>
  </g>
  <g id="Encoder">
    <g>
      <circle class="cls-4" cx="280.74" cy="43.68" r="20.55"/>
      <polyline class="cls-4" points="260.23 45.54 256.25 50.63 279.93 69.13 283.91 64.03"/>
      <circle class="cls-4" cx="280.74" cy="43.68" r="12.76"/>
      <circle class="cls-4" cx="280.74" cy="43.68" r="9.92"/>
      <g>
        <circle class="cls-4" cx="277.93" cy="47.29" r="2.62"/>
        <circle class="cls-4" cx="284.93" cy="38.33" r="1.85"/>
      </g>
      <g>
        <circle class="cls-4" cx="285.46" cy="44.25" r="2.62"/>
        <circle class="cls-4" cx="274.21" cy="42.67" r="1.85"/>
      </g>
      <g>
        <circle class="cls-4" cx="279.17" cy="39.54" r="2.62"/>
        <circle class="cls-4" cx="283.43" cy="50.08" r="1.85"/>
      </g>
    </g>
  </g>
  <g id="PusButtons">
    <circle class="cls-4" cx="316.65" cy="71.91" r="5.67"/>
    <circle class="cls-4" cx="316.65" cy="98.26" r="5.67"/>
    <circle class="cls-4" cx="316.65" cy="124.61" r="5.67"/>
  </g>
</svg>